<mxfile host="Electron" agent="Mozilla/5.0 (Windows NT 10.0; Win64; x64) AppleWebKit/537.36 (KHTML, like Gecko) draw.io/24.7.17 Chrome/128.0.6613.36 Electron/32.0.1 Safari/537.36" version="24.7.17">
  <diagram name="Page-1" id="gbLTtjVLoBZRH6NSWGJQ">
    <mxGraphModel dx="1098" dy="988" grid="1" gridSize="10" guides="1" tooltips="1" connect="1" arrows="1" fold="1" page="1" pageScale="1" pageWidth="850" pageHeight="1100" math="0" shadow="0">
      <root>
        <mxCell id="0" />
        <mxCell id="1" parent="0" />
        <mxCell id="b2Pwg3iya2H3ppzCyj4p-16" value="" style="edgeStyle=orthogonalEdgeStyle;rounded=0;orthogonalLoop=1;jettySize=auto;html=1;" parent="1" source="b2Pwg3iya2H3ppzCyj4p-1" target="b2Pwg3iya2H3ppzCyj4p-2" edge="1">
          <mxGeometry relative="1" as="geometry" />
        </mxCell>
        <mxCell id="b2Pwg3iya2H3ppzCyj4p-1" value="START" style="ellipse;whiteSpace=wrap;html=1;" parent="1" vertex="1">
          <mxGeometry x="350" y="80" width="120" height="80" as="geometry" />
        </mxCell>
        <mxCell id="b2Pwg3iya2H3ppzCyj4p-4" value="" style="edgeStyle=orthogonalEdgeStyle;rounded=0;orthogonalLoop=1;jettySize=auto;html=1;" parent="1" source="b2Pwg3iya2H3ppzCyj4p-2" target="b2Pwg3iya2H3ppzCyj4p-3" edge="1">
          <mxGeometry relative="1" as="geometry" />
        </mxCell>
        <mxCell id="b2Pwg3iya2H3ppzCyj4p-2" value="Nhập num1" style="shape=parallelogram;perimeter=parallelogramPerimeter;whiteSpace=wrap;html=1;fixedSize=1;" parent="1" vertex="1">
          <mxGeometry x="350" y="200" width="120" height="60" as="geometry" />
        </mxCell>
        <mxCell id="NOvhaVg8DT0jT7x-sa3C-2" value="" style="edgeStyle=orthogonalEdgeStyle;rounded=0;orthogonalLoop=1;jettySize=auto;html=1;" edge="1" parent="1" source="b2Pwg3iya2H3ppzCyj4p-3" target="NOvhaVg8DT0jT7x-sa3C-1">
          <mxGeometry relative="1" as="geometry" />
        </mxCell>
        <mxCell id="NOvhaVg8DT0jT7x-sa3C-4" value="" style="edgeStyle=orthogonalEdgeStyle;rounded=0;orthogonalLoop=1;jettySize=auto;html=1;" edge="1" parent="1" source="b2Pwg3iya2H3ppzCyj4p-3" target="NOvhaVg8DT0jT7x-sa3C-3">
          <mxGeometry relative="1" as="geometry" />
        </mxCell>
        <mxCell id="b2Pwg3iya2H3ppzCyj4p-3" value="num1 chia hết cho 2" style="rhombus;whiteSpace=wrap;html=1;" parent="1" vertex="1">
          <mxGeometry x="345" y="320" width="130" height="100" as="geometry" />
        </mxCell>
        <mxCell id="b2Pwg3iya2H3ppzCyj4p-10" value="" style="edgeStyle=orthogonalEdgeStyle;rounded=0;orthogonalLoop=1;jettySize=auto;html=1;exitX=0.45;exitY=0.85;exitDx=0;exitDy=0;exitPerimeter=0;" parent="1" source="NOvhaVg8DT0jT7x-sa3C-3" target="b2Pwg3iya2H3ppzCyj4p-9" edge="1">
          <mxGeometry relative="1" as="geometry">
            <mxPoint x="200" y="410" as="sourcePoint" />
          </mxGeometry>
        </mxCell>
        <mxCell id="b2Pwg3iya2H3ppzCyj4p-12" value="" style="edgeStyle=orthogonalEdgeStyle;rounded=0;orthogonalLoop=1;jettySize=auto;html=1;exitX=0.4;exitY=1;exitDx=0;exitDy=0;exitPerimeter=0;" parent="1" source="NOvhaVg8DT0jT7x-sa3C-1" target="b2Pwg3iya2H3ppzCyj4p-11" edge="1">
          <mxGeometry relative="1" as="geometry">
            <mxPoint x="630" y="390" as="sourcePoint" />
          </mxGeometry>
        </mxCell>
        <mxCell id="b2Pwg3iya2H3ppzCyj4p-14" style="edgeStyle=orthogonalEdgeStyle;rounded=0;orthogonalLoop=1;jettySize=auto;html=1;entryX=0;entryY=0.5;entryDx=0;entryDy=0;exitX=0.5;exitY=1;exitDx=0;exitDy=0;" parent="1" source="b2Pwg3iya2H3ppzCyj4p-9" target="b2Pwg3iya2H3ppzCyj4p-13" edge="1">
          <mxGeometry relative="1" as="geometry" />
        </mxCell>
        <mxCell id="b2Pwg3iya2H3ppzCyj4p-9" value="num1 là số chẵn" style="shape=parallelogram;perimeter=parallelogramPerimeter;whiteSpace=wrap;html=1;fixedSize=1;" parent="1" vertex="1">
          <mxGeometry x="140" y="500" width="120" height="60" as="geometry" />
        </mxCell>
        <mxCell id="b2Pwg3iya2H3ppzCyj4p-15" style="edgeStyle=orthogonalEdgeStyle;rounded=0;orthogonalLoop=1;jettySize=auto;html=1;entryX=1;entryY=0.5;entryDx=0;entryDy=0;exitX=0.5;exitY=1;exitDx=0;exitDy=0;" parent="1" source="b2Pwg3iya2H3ppzCyj4p-11" target="b2Pwg3iya2H3ppzCyj4p-13" edge="1">
          <mxGeometry relative="1" as="geometry" />
        </mxCell>
        <mxCell id="b2Pwg3iya2H3ppzCyj4p-11" value="num1 là số lẻ" style="shape=parallelogram;perimeter=parallelogramPerimeter;whiteSpace=wrap;html=1;fixedSize=1;" parent="1" vertex="1">
          <mxGeometry x="560" y="500" width="120" height="60" as="geometry" />
        </mxCell>
        <mxCell id="b2Pwg3iya2H3ppzCyj4p-13" value="END" style="ellipse;whiteSpace=wrap;html=1;" parent="1" vertex="1">
          <mxGeometry x="350" y="660" width="120" height="80" as="geometry" />
        </mxCell>
        <mxCell id="NOvhaVg8DT0jT7x-sa3C-1" value="Sai" style="shape=waypoint;size=6;pointerEvents=1;points=[];resizable=0;rotatable=0;perimeter=centerPerimeter;snapToPoint=1;gradientColor=none;fillColor=default;strokeColor=default;shadow=0;labelBackgroundColor=default;labelBorderColor=none;" vertex="1" parent="1">
          <mxGeometry x="610" y="360" width="20" height="20" as="geometry" />
        </mxCell>
        <mxCell id="NOvhaVg8DT0jT7x-sa3C-3" value="Đúng" style="shape=waypoint;sketch=0;size=6;pointerEvents=1;points=[];fillColor=default;resizable=0;rotatable=0;perimeter=centerPerimeter;snapToPoint=1;labelBackgroundColor=default;" vertex="1" parent="1">
          <mxGeometry x="190" y="360" width="20" height="20" as="geometry" />
        </mxCell>
      </root>
    </mxGraphModel>
  </diagram>
</mxfile>
